<svg id="Layer_1" data-name="Layer 1" xmlns="http://www.w3.org/2000/svg" viewBox="0 0 167.67 39.19"><title>splml_logo_hor</title><path class="cls-1" d="M3.79,20.92A8.36,8.36,0,0,0,4.95,25q1.93,3,6.81,3a11.68,11.68,0,0,0,4-.65q3.47-1.26,3.48-4.5a3.94,3.94,0,0,0-1.47-3.47,14.6,14.6,0,0,0-4.67-1.76l-3.91-.91a17.3,17.3,0,0,1-5.42-2A6.29,6.29,0,0,1,1,9.16,8.7,8.7,0,0,1,3.7,2.57Q6.4,0,11.35,0A13,13,0,0,1,19.1,2.26q3.19,2.26,3.19,7.23H18.49a7.68,7.68,0,0,0-1.24-3.67q-1.77-2.33-6-2.33Q7.82,3.49,6.32,5a4.79,4.79,0,0,0-1.5,3.49,3.43,3.43,0,0,0,1.77,3.2,25.42,25.42,0,0,0,5.25,1.62l4,1a12.22,12.22,0,0,1,4.52,1.88,7.15,7.15,0,0,1,2.75,6.06q0,4.95-3.51,7.07a15.4,15.4,0,0,1-8.16,2.13Q6.07,31.4,3,28.57a9.7,9.7,0,0,1-3-7.64Z"/><path class="cls-1" d="M27.25,8.92h3.57V11.8a8.87,8.87,0,0,1,2.4-2.29,7.73,7.73,0,0,1,4.35-1.22,8.19,8.19,0,0,1,6.28,2.83q2.58,2.83,2.58,8.08,0,7.1-3.72,10.14a8.44,8.44,0,0,1-5.5,1.93,7.48,7.48,0,0,1-4.13-1.07A9.51,9.51,0,0,1,30.9,28.1V39.19H27.25Z"/><path class="cls-1" d="M62.17,17.39a2,2,0,0,0,1.68-1.05,3.22,3.22,0,0,0,.24-1.4,3,3,0,0,0-1.33-2.72A7.07,7.07,0,0,0,59,11.37q-2.85,0-4,1.55a5.13,5.13,0,0,0-.87,2.55H50.65q.1-4,2.6-5.6a10.65,10.65,0,0,1,5.8-1.58,11.79,11.79,0,0,1,6.22,1.46,5,5,0,0,1,2.37,4.54V26.8a1.6,1.6,0,0,0,.23.91,1.13,1.13,0,0,0,1,.34l.55,0,.65-.09v2.7a10.08,10.08,0,0,1-1.3.3,9.56,9.56,0,0,1-1.22.06,3,3,0,0,1-2.74-1.34,5.18,5.18,0,0,1-.63-2A9.29,9.29,0,0,1,61,30.19a9.91,9.91,0,0,1-4.6,1.07,6.85,6.85,0,0,1-4.94-1.83,6.09,6.09,0,0,1-1.92-4.59,5.91,5.91,0,0,1,1.88-4.68,9,9,0,0,1,4.95-2Z"/><path class="cls-1" d="M73.53.75h3.65V30.53H73.53Z"/><path class="cls-1" d="M82.39,8.82H86V11.9a12.08,12.08,0,0,1,2.35-2.33,7.07,7.07,0,0,1,4.09-1.24,6.44,6.44,0,0,1,4.18,1.28,6.69,6.69,0,0,1,1.62,2.15,7.88,7.88,0,0,1,2.86-2.58,8,8,0,0,1,3.69-.84q4.38,0,6,3.16a10.34,10.34,0,0,1,.85,4.58V30.53h-3.79V15.45a3.52,3.52,0,0,0-1.08-3,4.3,4.3,0,0,0-2.65-.81,5.25,5.25,0,0,0-3.7,1.44q-1.55,1.44-1.55,4.81V30.53H95.12V16.36a7.35,7.35,0,0,0-.53-3.22,3.21,3.21,0,0,0-3.1-1.52,5.35,5.35,0,0,0-3.76,1.6Q86,14.82,86,19V30.53H82.39Z"/><path class="cls-1" d="M128.74,17.39a2,2,0,0,0,1.68-1.05,3.22,3.22,0,0,0,.24-1.4,3,3,0,0,0-1.33-2.72,7.07,7.07,0,0,0-3.79-.84q-2.85,0-4,1.55a5.13,5.13,0,0,0-.87,2.55h-3.41q.1-4,2.6-5.6a10.65,10.65,0,0,1,5.8-1.58,11.79,11.79,0,0,1,6.22,1.46,5,5,0,0,1,2.37,4.54V26.8a1.6,1.6,0,0,0,.23.91,1.13,1.13,0,0,0,1,.34l.55,0,.65-.09v2.7a10.08,10.08,0,0,1-1.3.3,9.56,9.56,0,0,1-1.22.06,3,3,0,0,1-2.74-1.34,5.18,5.18,0,0,1-.63-2,9.29,9.29,0,0,1-3.2,2.53,9.91,9.91,0,0,1-4.6,1.07A6.85,6.85,0,0,1,118,29.43a6.09,6.09,0,0,1-1.92-4.59A5.91,5.91,0,0,1,118,20.17a9,9,0,0,1,4.95-2Z"/><path class="cls-1" d="M140.1.75h3.65V30.53H140.1Z"/><path class="cls-1" d="M164.79,11q2.88,2.8,2.88,8.22a14.17,14.17,0,0,1-2.54,8.67q-2.54,3.42-7.87,3.42a8.86,8.86,0,0,1-7.07-3,12,12,0,0,1-2.62-8.13q0-5.47,2.76-8.71a9.23,9.23,0,0,1,7.41-3.24A9.74,9.74,0,0,1,164.79,11Z"/></svg>